<svg width="240" height="136" viewBox="0 0 240 136" fill="none" xmlns="http://www.w3.org/2000/svg">
<path d="M14.0762 40.6973V88.7168H228.156V40.6973H14.0762ZM225.456 86.0079H116.106V43.4062H225.456V86.0079Z" fill="#1E2B5A"/>
<path d="M25.4556 72.7519V56.7869H30.9474V68.5002H40.6349V72.7519H25.4556Z" fill="white"/>
<path d="M62.2862 64.6576C62.2862 69.7409 59.1245 72.9957 51.6037 72.9957C44.7727 72.9957 40.9009 70.1892 40.9009 64.6576C40.9009 59.7558 44.5918 56.4212 51.6037 56.4212C58.7249 56.4212 62.2862 59.4917 62.2862 64.6576ZM56.7728 64.7186C56.7728 62.416 55.8197 60.5699 51.5834 60.5699C47.7116 60.5699 46.4534 62.2169 46.4534 64.7186C46.4534 67.2609 47.6077 68.9079 51.601 68.9079C55.6199 68.9079 56.7728 67.1593 56.7728 64.7186Z" fill="white"/>
<path d="M79.2746 72.7519L79.1328 71.2051C77.2957 72.5206 75.0596 73.1537 72.8081 72.9957C69.4236 72.9957 66.6048 71.9785 65.024 69.9251C63.9814 68.426 63.4548 66.6265 63.5241 64.7999C63.4649 63.0115 64.0096 61.2556 65.0699 59.8168C66.6696 57.8244 69.5694 56.5025 73.8867 56.5025C78.8534 56.5025 81.7721 58.0276 83.0276 60.5902C83.2971 61.1937 83.4554 61.8412 83.4947 62.5014H78.2405C78.1081 62.1002 77.8618 61.7467 77.5317 61.4842C76.4851 60.788 75.2353 60.4659 73.9839 60.5699C73.2499 60.4806 72.5054 60.5487 71.7996 60.7696C71.0937 60.9904 70.4426 61.3591 69.8894 61.8512C69.2612 62.714 68.9662 63.7761 69.0591 64.8405C68.9863 65.856 69.2575 66.8664 69.8286 67.7079C70.387 68.2297 71.0506 68.625 71.7745 68.8671C72.4984 69.1092 73.2657 69.1924 74.0244 69.1111C75.5315 69.2341 77.0277 68.7677 78.2 67.8095C78.4518 67.4936 78.6254 67.1222 78.7062 66.7259H73.0524V63.2951H83.6324V72.7519H79.2746Z" fill="white"/>
<path d="M106.558 64.6576C106.558 69.7409 103.395 72.9957 95.8756 72.9957C89.0446 72.9957 85.1729 70.1892 85.1729 64.6576C85.1729 59.7558 88.8637 56.4212 95.8756 56.4212C102.991 56.4212 106.558 59.4917 106.558 64.6576ZM101.045 64.7186C101.045 62.416 100.092 60.5699 95.8554 60.5699C91.9836 60.5699 90.7254 62.2169 90.7254 64.7186C90.7254 67.2609 91.881 68.9079 95.8729 68.9079C99.8905 68.9079 101.045 67.1593 101.045 64.7186Z" fill="white"/>
<path d="M125.356 72.6909V56.726H129.271V72.6909H125.356Z" fill="#1E2B5A"/>
<path d="M149.376 66.0202C148.384 67.3218 146.676 67.9164 144.269 67.9313C143.761 67.9313 137.031 67.911 137.031 67.911V72.6909H133.2V56.7259H144.27C145.157 56.6318 146.055 56.7262 146.903 57.003C147.752 57.2797 148.532 57.7327 149.195 58.3323C150.069 59.4758 150.495 60.9014 150.391 62.3388C150.48 63.6461 150.122 64.9449 149.376 66.0202ZM146.234 60.815C145.829 60.2055 144.956 59.8669 143.478 59.8669H137.011V64.7267H143.436C145.017 64.7267 145.85 64.4016 146.234 63.7705C146.463 63.3258 146.562 62.8251 146.518 62.3266C146.552 61.8068 146.455 61.2868 146.234 60.815Z" fill="#1E2B5A"/>
<path d="M161.681 72.9347C154.464 72.9347 152.255 70.2258 152.255 67.5453H156.35C156.35 68.8673 158.154 69.8642 161.863 69.8642C165.551 69.8642 166.525 69.2127 166.525 68.1548C166.525 66.9751 165.796 66.6094 162.37 66.2234C161.695 66.1624 159.857 65.939 159.167 65.8374C154.307 65.2875 152.436 63.8436 152.436 61.2607C152.436 58.5355 155.174 56.4821 161.113 56.4821C167.559 56.4821 170.032 59.0245 170.032 61.6684H165.982C165.982 60.3261 164.462 59.5527 160.874 59.5527C157.184 59.5527 156.394 60.0606 156.394 61.0575C156.394 62.095 157.204 62.4201 161.119 62.8874C162.012 63.0106 163.998 63.2341 164.544 63.2937C168.681 63.7204 170.545 65.2252 170.545 67.8894C170.538 71.0629 167.701 72.9347 161.681 72.9347Z" fill="#1E2B5A"/>
<path d="M182.074 72.9144C176.785 72.9144 173.338 70.8191 173.338 66.413V56.726H177.209V66.4672C177.209 68.4813 178.852 69.8222 182.236 69.8222C185.297 69.8222 187.122 68.5625 187.122 66.4672V56.726H190.953V66.7747C190.953 70.7798 187.75 72.9144 182.074 72.9144Z" fill="#1E2B5A"/>
<path d="M211.932 72.6909V62.0341L206.966 72.6909H203.196L198.372 62.0341V72.6909H194.727V56.726H199.665L205.138 68.8876L210.732 56.726H215.592V72.6909H211.932Z" fill="#1E2B5A"/>
</svg>
