<svg width="240" height="136" viewBox="0 0 240 136" fill="none" xmlns="http://www.w3.org/2000/svg">
<path d="M52.3657 74.5144H56.4157V94.52H52.3657V74.5144Z" fill="#1E2B5A"/>
<path d="M58.765 87.6656C58.7623 86.2286 59.1828 84.8232 59.9733 83.6271C60.7638 82.431 61.8888 81.4981 63.2058 80.9463C64.5228 80.3946 65.9727 80.2488 67.372 80.5275C68.7713 80.8062 70.057 81.4968 71.0666 82.5119C72.0761 83.527 72.764 84.821 73.0433 86.2302C73.3225 87.6393 73.1806 89.1002 72.6353 90.428C72.0901 91.7559 71.1661 92.8909 69.9803 93.6895C68.7945 94.4881 67.4002 94.9144 65.9739 94.9144C65.0253 94.9253 64.0842 94.7454 63.2055 94.3851C62.3269 94.0248 61.5285 93.4915 60.8571 92.8164C60.1857 92.1413 59.6548 91.338 59.2956 90.4535C58.9363 89.569 58.7559 88.6212 58.765 87.6656ZM69.1058 87.6656C69.0899 87.0453 68.8928 86.4435 68.5391 85.9354C68.1854 85.4274 67.6909 85.0357 67.1174 84.8094C66.5439 84.583 65.9168 84.5321 65.3147 84.6629C64.7126 84.7937 64.1622 85.1004 63.7322 85.5448C63.3023 85.9891 63.0119 86.5513 62.8975 87.161C62.7831 87.7708 62.8496 88.4009 63.0889 88.9727C63.3281 89.5445 63.7294 90.0326 64.2426 90.3758C64.7557 90.719 65.3579 90.9022 65.9739 90.9024C66.3953 90.9143 66.8146 90.838 67.2053 90.6785C67.596 90.519 67.9497 90.2796 68.244 89.9754C68.5383 89.6713 68.7668 89.309 68.9151 88.9115C69.0635 88.5139 69.1284 88.0897 69.1058 87.6656Z" fill="#1E2B5A"/>
<path d="M89.4634 80.8112V93.84C89.4634 98.4504 85.886 100.395 82.268 100.395C80.9958 100.49 79.722 100.231 78.5862 99.646C77.4504 99.0607 76.4964 98.1719 75.8286 97.0768L79.3115 95.0504C79.5879 95.6116 80.0252 96.0763 80.5668 96.3843C81.1084 96.6922 81.7292 96.8292 82.349 96.7776C82.7569 96.8461 83.1749 96.8193 83.5708 96.6992C83.9667 96.5792 84.33 96.3692 84.6327 96.0853C84.9353 95.8015 85.1691 95.4514 85.3162 95.0621C85.4633 94.6728 85.5197 94.2547 85.481 93.84V92.5752C85.0048 93.1653 84.3973 93.6341 83.7078 93.9437C83.0182 94.2532 82.266 94.3947 81.512 94.3568C79.6789 94.3568 77.9208 93.6232 76.6246 92.3173C75.3283 91.0115 74.6001 89.2403 74.6001 87.3936C74.6001 85.5468 75.3283 83.7757 76.6246 82.4699C77.9208 81.164 79.6789 80.4304 81.512 80.4304C82.2656 80.3957 83.0168 80.5387 83.7058 80.848C84.3948 81.1573 85.0027 81.6243 85.481 82.212V80.852L89.4634 80.8112ZM85.481 87.3936C85.5079 86.7322 85.3378 86.0777 84.9927 85.5144C84.6475 84.9511 84.1429 84.5047 83.5439 84.2326C82.9449 83.9604 82.2788 83.875 81.6312 83.9873C80.9836 84.0995 80.3841 84.4044 79.9098 84.8626C79.4355 85.3208 79.1082 85.9114 78.9697 86.5585C78.8313 87.2057 78.8882 87.8797 79.133 88.4941C79.3779 89.1084 79.7995 89.6349 80.3437 90.0059C80.888 90.3769 81.5299 90.5754 82.187 90.576C82.6159 90.6066 83.0464 90.5463 83.4508 90.399C83.8551 90.2517 84.2244 90.0207 84.5347 89.7209C84.8451 89.4211 85.0896 89.0591 85.2526 88.6582C85.4156 88.2574 85.4934 87.8266 85.481 87.3936Z" fill="#1E2B5A"/>
<path d="M91.7987 87.6656C91.796 86.2286 92.2165 84.8232 93.007 83.6271C93.7975 82.431 94.9225 81.4981 96.2395 80.9463C97.5565 80.3946 99.0064 80.2488 100.406 80.5275C101.805 80.8062 103.091 81.4968 104.1 82.5119C105.11 83.527 105.798 84.821 106.077 86.2302C106.356 87.6393 106.214 89.1002 105.669 90.428C105.124 91.7559 104.2 92.8909 103.014 93.6895C101.828 94.4881 100.434 94.9144 99.0076 94.9144C98.059 94.9253 97.1179 94.7454 96.2392 94.3851C95.3606 94.0248 94.5622 93.4915 93.8908 92.8164C93.2194 92.1413 92.6885 91.338 92.3293 90.4535C91.97 89.569 91.7896 88.6212 91.7987 87.6656ZM102.14 87.6656C102.124 87.0453 101.926 86.4435 101.573 85.9354C101.219 85.4274 100.725 85.0357 100.151 84.8094C99.5776 84.583 98.9505 84.5321 98.3484 84.6629C97.7463 84.7937 97.1958 85.1004 96.7659 85.5448C96.336 85.9891 96.0456 86.5513 95.9312 87.161C95.8168 87.7708 95.8833 88.4009 96.1226 88.9727C96.3618 89.5445 96.7631 90.0326 97.2763 90.3758C97.7894 90.719 98.3916 90.9022 99.0076 90.9024C99.4268 90.9105 99.8431 90.8314 100.231 90.6702C100.618 90.5089 100.968 90.269 101.26 89.9653C101.551 89.6615 101.777 89.3006 101.924 88.9049C102.071 88.5092 102.135 88.0874 102.113 87.6656H102.14Z" fill="#1E2B5A"/>
<path d="M108.093 77.1392C108.093 76.6497 108.237 76.1711 108.507 75.7641C108.777 75.357 109.161 75.0398 109.61 74.8524C110.059 74.6651 110.553 74.6161 111.03 74.7116C111.506 74.8071 111.944 75.0428 112.288 75.389C112.631 75.7351 112.865 76.1762 112.96 76.6563C113.055 77.1365 113.006 77.6341 112.82 78.0864C112.634 78.5387 112.319 78.9253 111.915 79.1973C111.511 79.4692 111.036 79.6144 110.55 79.6144C109.9 79.6108 109.277 79.3489 108.817 78.8855C108.357 78.4221 108.097 77.7946 108.093 77.1392ZM108.512 80.8112H112.562V94.52H108.512V80.8112Z" fill="#1E2B5A"/>
<path d="M130.219 87.6656C130.268 88.5718 130.139 89.4788 129.839 90.3344C129.539 91.19 129.073 91.9774 128.47 92.6511C127.866 93.3249 127.136 93.8717 126.322 94.2601C125.508 94.6485 124.626 94.8709 123.726 94.9144C122.97 94.9509 122.216 94.8201 121.517 94.531C120.817 94.242 120.188 93.8018 119.676 93.2416V100.042H115.626V80.8112H119.676V82.1032C120.188 81.5429 120.817 81.1028 121.517 80.8138C122.216 80.5247 122.97 80.3939 123.726 80.4304C124.624 80.4739 125.506 80.6959 126.319 81.0834C127.132 81.471 127.861 82.0166 128.465 82.6889C129.068 83.3611 129.534 84.1469 129.835 85.0009C130.136 85.855 130.267 86.7605 130.219 87.6656ZM126.169 87.6656C126.153 87.0273 125.952 86.4077 125.59 85.8836C125.228 85.3596 124.721 84.954 124.132 84.7171C123.544 84.4803 122.899 84.4225 122.278 84.5511C121.657 84.6796 121.088 84.9887 120.639 85.4402C120.191 85.8917 119.884 86.4658 119.757 87.0912C119.629 87.7167 119.687 88.3661 119.922 88.959C120.157 89.552 120.559 90.0625 121.08 90.4272C121.6 90.792 122.215 90.995 122.848 91.0112C123.291 91.0395 123.734 90.9722 124.148 90.8137C124.562 90.6552 124.938 90.4092 125.25 90.0923C125.562 89.7754 125.803 89.3948 125.957 88.9763C126.111 88.5577 126.174 88.1108 126.142 87.6656H126.169Z" fill="#1E2B5A"/>
<path d="M142.828 90.4128C142.828 93.568 140.128 94.9144 137.158 94.9144C135.972 95.0202 134.781 94.7659 133.74 94.1842C132.698 93.6025 131.853 92.72 131.313 91.6504L134.85 89.624C134.994 90.1187 135.301 90.549 135.721 90.8434C136.141 91.1378 136.648 91.2786 137.158 91.2424C138.144 91.2424 138.63 90.9296 138.63 90.3856C138.63 88.876 131.88 89.6784 131.88 84.9456C131.88 81.9536 134.391 80.444 137.28 80.444C138.346 80.4113 139.401 80.6665 140.336 81.183C141.272 81.6995 142.053 82.4586 142.599 83.3816L139.048 85.2584C138.892 84.8992 138.635 84.5936 138.309 84.3788C137.983 84.1639 137.602 84.049 137.212 84.048C136.51 84.048 136.078 84.32 136.078 84.8232C136.132 86.3872 142.828 85.34 142.828 90.4128Z" fill="#1E2B5A"/>
<path d="M157.732 80.8112V94.52H153.682V93.2416C153.211 93.8096 152.613 94.2573 151.937 94.548C151.262 94.8387 150.527 94.9643 149.794 94.9144C147.094 94.9144 144.705 92.9424 144.705 89.2296V80.8112H148.755V88.6312C148.719 88.9644 148.757 89.3015 148.867 89.6179C148.977 89.9343 149.155 90.2221 149.389 90.4604C149.623 90.6987 149.907 90.8815 150.22 90.9956C150.533 91.1097 150.867 91.1522 151.198 91.12C152.683 91.12 153.722 90.2496 153.722 88.3048V80.8112H157.732Z" fill="#1E2B5A"/>
<path d="M181.14 86.1152V94.52H177.091V86.4688C177.091 85.1088 176.429 84.2112 175.133 84.2112C173.837 84.2112 173 85.1768 173 86.7952V94.52H168.95V86.4688C168.95 85.1088 168.302 84.2112 166.993 84.2112C165.683 84.2112 164.873 85.1768 164.873 86.7952V94.52H160.823V80.8112H164.873V82.076C165.296 81.5174 165.852 81.0742 166.488 80.7868C167.125 80.4994 167.823 80.3769 168.518 80.4304C169.217 80.3962 169.912 80.5449 170.537 80.8619C171.161 81.1788 171.694 81.6534 172.082 82.2392C172.534 81.6267 173.132 81.1395 173.822 80.8232C174.511 80.5069 175.269 80.3717 176.024 80.4304C179.102 80.4304 181.14 82.688 181.14 86.1152Z" fill="#1E2B5A"/>
<path d="M184.597 80.7296C186.267 80.7296 187.621 79.3657 187.621 77.6832C187.621 76.0007 186.267 74.6368 184.597 74.6368C182.927 74.6368 181.573 76.0007 181.573 77.6832C181.573 79.3657 182.927 80.7296 184.597 80.7296Z" fill="#1E2B5A"/>
<path d="M98.1975 64.1376C106.019 64.1376 112.359 57.7503 112.359 49.8712C112.359 41.9921 106.019 35.6048 98.1975 35.6048C90.3764 35.6048 84.0361 41.9921 84.0361 49.8712C84.0361 57.7503 90.3764 64.1376 98.1975 64.1376Z" fill="#1E2B5A"/>
<path d="M129.855 64.1376C137.676 64.1376 144.016 57.7503 144.016 49.8712C144.016 41.9921 137.676 35.6048 129.855 35.6048C122.034 35.6048 115.693 41.9921 115.693 49.8712C115.693 57.7503 122.034 64.1376 129.855 64.1376Z" fill="#1E2B5A"/>
<path d="M80.7022 35.6048H52.3931V64.124H80.7022V35.6048Z" fill="#1E2B5A"/>
</svg>
