<svg width="240" height="136" viewBox="0 0 240 136" fill="none" xmlns="http://www.w3.org/2000/svg">
<path d="M43.1211 85.442H77.7485V50.558H43.1211V85.442ZM71.0836 64.6435H63.7666V57.2723H71.0836V64.6435ZM49.7847 57.2723H57.1057V71.3565H71.0836V78.7277H49.7847V57.2723ZM100.298 50.558C96.8732 50.558 93.5258 51.5809 90.6786 53.4975C87.8313 55.414 85.6122 58.1381 84.3018 61.3252C82.9913 64.5123 82.6485 68.0193 83.3165 71.4028C83.9846 74.7862 85.6335 77.894 88.0549 80.3334C90.4763 82.7727 93.5613 84.4338 96.9198 85.1068C100.278 85.7799 103.76 85.4344 106.923 84.1143C110.087 82.7942 112.791 80.5586 114.693 77.6902C116.596 74.8219 117.611 71.4497 117.611 68C117.606 63.3757 115.78 58.9424 112.534 55.6726C109.289 52.4028 104.888 50.5634 100.298 50.558ZM100.298 78.7277C98.1914 78.7277 96.1326 78.0985 94.3814 76.9197C92.6302 75.741 91.2654 74.0655 90.4594 72.1053C89.6534 70.1451 89.4425 67.9881 89.8534 65.9071C90.2643 63.8262 91.2785 61.9147 92.7677 60.4144C94.257 58.9141 96.1544 57.8924 98.2201 57.4784C100.286 57.0645 102.427 57.2769 104.373 58.0889C106.318 58.9009 107.982 60.2758 109.152 62.04C110.322 63.8042 110.946 65.8783 110.946 68C110.942 70.8438 109.819 73.5699 107.823 75.5808C105.827 77.5917 103.12 78.7234 100.298 78.7277ZM179.568 50.558C176.144 50.5577 172.796 51.5804 169.949 53.4968C167.101 55.4132 164.882 58.1372 163.571 61.3243C162.261 64.5114 161.918 68.0184 162.586 71.4019C163.253 74.7854 164.902 77.8934 167.324 80.3329C169.745 82.7723 172.83 84.4336 176.189 85.1068C179.547 85.7799 183.028 85.4345 186.192 84.1144C189.356 82.7943 192.06 80.5587 193.962 77.6904C195.865 74.822 196.88 71.4497 196.88 68C196.875 63.376 195.049 58.9429 191.804 55.6731C188.558 52.4033 184.158 50.5637 179.568 50.558ZM179.568 78.7277C177.462 78.7279 175.403 78.099 173.652 76.9204C171.9 75.7418 170.535 74.0664 169.729 72.1062C168.923 70.146 168.712 67.989 169.122 65.908C169.533 63.8269 170.547 61.9153 172.036 60.4149C173.526 58.9144 175.423 57.8926 177.489 57.4785C179.554 57.0645 181.696 57.2769 183.642 58.0888C185.587 58.9007 187.251 60.2757 188.421 62.0399C189.591 63.8041 190.216 65.8782 190.216 68C190.211 70.8436 189.088 73.5695 187.092 75.5804C185.097 77.5912 182.391 78.723 179.568 78.7277ZM139.932 50.558C136.508 50.558 133.16 51.5809 130.313 53.4975C127.466 55.414 125.247 58.1381 123.936 61.3252C122.626 64.5123 122.283 68.0193 122.951 71.4028C123.619 74.7862 125.268 77.894 127.69 80.3334C130.111 82.7727 133.196 84.4338 136.554 85.1068C139.913 85.7799 143.394 85.4344 146.558 84.1143C149.722 82.7942 152.426 80.5586 154.328 77.6902C156.23 74.8219 157.246 71.4497 157.246 68C157.241 63.3757 155.415 58.9424 152.169 55.6726C148.923 52.4028 144.522 50.5634 139.932 50.558ZM139.932 78.7277C137.97 78.7287 136.046 78.1834 134.371 77.1522C132.697 76.1209 131.339 74.6437 130.445 72.8836C129.552 71.1235 129.159 69.149 129.309 67.178C129.46 65.207 130.148 63.3162 131.297 61.7143C132.447 60.1123 134.014 58.8616 135.825 58.1001C137.636 57.3387 139.62 57.0961 141.559 57.3991C143.498 57.7022 145.317 58.539 146.813 59.8174C148.31 61.0958 149.427 62.766 150.041 64.6435H139.932V71.3565H150.041C149.338 73.4989 147.983 75.3639 146.168 76.687C144.354 78.0101 142.172 78.7241 139.932 78.7277Z" fill="#1E2B5A"/>
</svg>
