<svg width="240" height="136" viewBox="0 0 240 136" fill="none" xmlns="http://www.w3.org/2000/svg">
<path d="M74.6812 57.46H78.7311V77.112H74.6812V57.46Z" fill="#1E2B5A"/>
<path d="M80.9992 70.38C80.9992 68.9661 81.4159 67.5841 82.1965 66.409C82.9771 65.234 84.0864 64.3189 85.3838 63.7797C86.6812 63.2405 88.1083 63.1015 89.4842 63.3803C90.8602 63.6591 92.1229 64.3432 93.1125 65.3459C94.102 66.3485 94.7738 67.6245 95.0427 69.0122C95.3116 70.3999 95.1655 71.8368 94.6228 73.1407C94.0802 74.4447 93.1655 75.5569 91.9946 76.3366C90.8238 77.1162 89.4495 77.5281 88.0461 77.52C87.1152 77.5273 86.1923 77.3473 85.3314 76.9906C84.4705 76.6339 83.6889 76.1076 83.0326 75.4425C82.3762 74.7775 81.8583 73.9872 81.5091 73.1178C81.1599 72.2485 80.9866 71.3177 80.9992 70.38ZM91.151 70.38C91.1351 69.7704 90.9412 69.1792 90.5934 68.6801C90.2457 68.181 89.7596 67.7963 89.1959 67.5741C88.6323 67.3518 88.0161 67.302 87.4245 67.4307C86.8329 67.5594 86.292 67.8609 85.8696 68.2977C85.4472 68.7344 85.162 69.2869 85.0497 69.886C84.9373 70.4852 85.0028 71.1044 85.238 71.6663C85.4731 72.2282 85.8675 72.7077 86.3718 73.045C86.876 73.3822 87.4678 73.5622 88.0731 73.5624C88.4852 73.5705 88.8945 73.4929 89.2755 73.3344C89.6564 73.1759 90.0009 72.9399 90.2872 72.6412C90.5735 72.3425 90.7956 71.9876 90.9396 71.5985C91.0836 71.2094 91.1464 70.7946 91.124 70.38H91.151Z" fill="#1E2B5A"/>
<path d="M111.117 63.648V76.4456C111.117 80.9608 107.607 82.8784 104.057 82.8784C102.805 82.9819 101.548 82.7313 100.43 82.1546C99.3112 81.578 98.3746 80.6982 97.7254 79.6144L101.141 77.6288C101.418 78.191 101.858 78.6548 102.403 78.9585C102.948 79.2622 103.572 79.3914 104.192 79.3288C104.587 79.3778 104.987 79.3383 105.365 79.2131C105.743 79.088 106.089 78.8802 106.378 78.6047C106.667 78.3292 106.892 77.9928 107.037 77.6196C107.181 77.2463 107.243 76.8454 107.216 76.4456V75.208C106.745 75.7836 106.147 76.2407 105.469 76.5429C104.792 76.8451 104.054 76.984 103.314 76.9488C101.524 76.9488 99.8073 76.2324 98.5415 74.9571C97.2756 73.6819 96.5645 71.9523 96.5645 70.1488C96.5645 68.3453 97.2756 66.6157 98.5415 65.3405C99.8073 64.0652 101.524 63.3488 103.314 63.3488C104.054 63.3136 104.792 63.4525 105.469 63.7547C106.147 64.0569 106.745 64.5139 107.216 65.0896V63.7296L111.117 63.648ZM107.216 70.108C107.243 69.4573 107.076 68.8134 106.737 68.2591C106.397 67.7047 105.901 67.2653 105.312 66.9973C104.723 66.7292 104.068 66.6449 103.431 66.755C102.793 66.8652 102.204 67.1648 101.737 67.6154C101.27 68.066 100.948 68.647 100.812 69.2835C100.675 69.9201 100.731 70.5832 100.972 71.1876C101.213 71.792 101.627 72.31 102.163 72.675C102.698 73.0401 103.329 73.2354 103.976 73.236C104.398 73.2666 104.821 73.2078 105.219 73.0632C105.617 72.9187 105.98 72.6917 106.285 72.3969C106.591 72.1022 106.831 71.7461 106.992 71.3519C107.152 70.9576 107.228 70.5339 107.216 70.108Z" fill="#1E2B5A"/>
<path d="M113.398 70.38C113.398 68.9673 113.814 67.5863 114.594 66.4118C115.373 65.2374 116.481 64.3222 117.777 63.7822C119.073 63.2422 120.498 63.1016 121.874 63.3782C123.249 63.6548 124.512 64.3362 125.502 65.3361C126.493 66.336 127.167 67.6095 127.439 68.9954C127.711 70.3813 127.568 71.8174 127.03 73.1218C126.491 74.4262 125.581 75.5404 124.414 76.3233C123.246 77.1062 121.875 77.5227 120.472 77.52C119.54 77.5291 118.615 77.3506 117.751 76.9948C116.888 76.639 116.104 76.1132 115.445 75.4482C114.786 74.7832 114.266 73.9924 113.915 73.1221C113.563 72.2518 113.388 71.3195 113.398 70.38ZM123.55 70.38C123.534 69.7699 123.34 69.1781 122.992 68.6787C122.643 68.1794 122.156 67.7947 121.592 67.5729C121.028 67.351 120.411 67.302 119.819 67.4318C119.227 67.5616 118.686 67.8645 118.264 68.3026C117.842 68.7407 117.558 69.2944 117.447 69.8944C117.337 70.4945 117.404 71.1141 117.641 71.6757C117.878 72.2373 118.275 72.7159 118.781 73.0516C119.287 73.3872 119.88 73.5649 120.486 73.5624C120.898 73.5705 121.307 73.4929 121.688 73.3344C122.069 73.1759 122.414 72.9399 122.7 72.6412C122.986 72.3426 123.208 71.9876 123.352 71.5985C123.496 71.2094 123.559 70.7946 123.537 70.38H123.55Z" fill="#1E2B5A"/>
<path d="M129.423 60.044C129.423 59.5652 129.564 59.0971 129.828 58.699C130.092 58.3009 130.467 57.9907 130.906 57.8074C131.345 57.6242 131.829 57.5763 132.295 57.6697C132.761 57.7631 133.189 57.9937 133.525 58.3322C133.861 58.6708 134.09 59.1021 134.183 59.5717C134.275 60.0413 134.228 60.528 134.046 60.9704C133.864 61.4127 133.556 61.7908 133.161 62.0568C132.766 62.3228 132.301 62.4648 131.826 62.4648C131.191 62.4577 130.584 62.2004 130.134 61.7479C129.685 61.2955 129.43 60.6838 129.423 60.044ZM129.814 63.648H133.864V77.112H129.814V63.648Z" fill="#1E2B5A"/>
<path d="M151.198 70.38C151.243 71.2754 151.113 72.1711 150.813 73.0154C150.513 73.8596 150.051 74.6359 149.453 75.2995C148.854 75.9631 148.131 76.5009 147.326 76.882C146.52 77.2631 145.648 77.4799 144.759 77.52C144.004 77.5706 143.248 77.4488 142.547 77.1639C141.845 76.8789 141.217 76.4382 140.709 75.8744V82.5248H136.659V63.648H140.709V64.9128C141.218 64.3507 141.847 63.9119 142.548 63.6293C143.249 63.3467 144.005 63.2275 144.759 63.2808C145.644 63.321 146.513 63.5365 147.316 63.915C148.119 64.2935 148.84 64.8276 149.438 65.4868C150.036 66.1461 150.499 66.9175 150.801 67.7571C151.103 68.5966 151.238 69.4879 151.198 70.38ZM147.148 70.38C147.132 69.7483 146.931 69.1355 146.571 68.6182C146.211 68.101 145.707 67.7024 145.123 67.4723C144.539 67.2423 143.9 67.191 143.287 67.325C142.674 67.4591 142.114 67.7723 141.677 68.2256C141.241 68.6789 140.946 69.2521 140.831 69.8732C140.716 70.4944 140.786 71.1359 141.031 71.7174C141.277 72.2989 141.687 72.7945 142.211 73.142C142.734 73.4896 143.348 73.6737 143.976 73.6712C144.405 73.6896 144.834 73.6162 145.233 73.456C145.633 73.2958 145.994 73.0524 146.294 72.7416C146.593 72.4308 146.824 72.0598 146.971 71.6528C147.119 71.2458 147.179 70.8121 147.148 70.38Z" fill="#1E2B5A"/>
<path d="M163.523 73.0728C163.523 76.1736 160.823 77.4928 157.961 77.4928C156.794 77.5986 155.622 77.3494 154.597 76.7772C153.572 76.205 152.74 75.3363 152.21 74.2832L155.693 72.2976C155.831 72.7829 156.131 73.2057 156.541 73.4953C156.951 73.785 157.448 73.9239 157.948 73.8888C158.906 73.8888 159.392 73.5896 159.392 73.0456C159.392 71.5632 152.818 72.352 152.818 67.6872C152.818 64.7496 155.275 63.2808 158.056 63.2808C159.113 63.2331 160.163 63.4747 161.095 63.98C162.027 64.4852 162.805 65.2352 163.348 66.1504L159.865 68C159.711 67.6491 159.46 67.3507 159.141 67.1407C158.822 66.9307 158.45 66.8182 158.069 66.8168C157.367 66.8168 156.949 67.0888 156.949 67.5648C156.949 69.1152 163.523 68.0952 163.523 73.0728Z" fill="#1E2B5A"/>
<path d="M178.198 63.648V77.112H174.148V75.8472C173.688 76.4071 173.104 76.8501 172.442 77.1407C171.781 77.4313 171.061 77.5612 170.341 77.52C167.641 77.52 165.333 75.5752 165.333 71.944V63.648H169.382V71.332C169.351 71.6533 169.388 71.9776 169.493 72.2827C169.598 72.5878 169.767 72.8664 169.989 73.0992C170.211 73.3319 170.481 73.5133 170.779 73.6309C171.078 73.7484 171.398 73.7993 171.718 73.78C173.176 73.78 174.202 72.9096 174.202 71.06V63.648H178.198Z" fill="#1E2B5A"/>
<path d="M201.148 68.8432V77.112H197.098V69.1968C197.098 67.8368 196.463 66.9936 195.181 66.9936C193.898 66.9936 193.088 67.932 193.088 69.5232V77.112H189.038V69.1968C189.038 67.8368 188.404 66.9936 187.121 66.9936C185.839 66.9936 185.029 67.932 185.029 69.5232V77.112H180.979V63.648H185.029V64.8856C185.448 64.3388 185.996 63.9058 186.623 63.6257C187.25 63.3455 187.936 63.227 188.62 63.2808C189.305 63.2448 189.987 63.3889 190.6 63.6988C191.213 64.0088 191.736 64.474 192.116 65.0488C192.561 64.4483 193.15 63.9711 193.827 63.662C194.505 63.3528 195.249 63.2216 195.991 63.2808C199.15 63.2808 201.148 65.484 201.148 68.8432Z" fill="#1E2B5A"/>
<path d="M50.5571 53.924V48.144H32.4673V87.856H50.5571V82.076C46.8514 82.076 43.2975 80.593 40.6771 77.9532C38.0568 75.3134 36.5847 71.7332 36.5847 68C36.5847 64.2668 38.0568 60.6865 40.6771 58.0467C43.2975 55.407 46.8514 53.924 50.5571 53.924Z" fill="#1E2B5A"/>
<path d="M50.5571 53.924V82.076C54.2628 82.076 57.8167 80.593 60.4371 77.9532C63.0574 75.3135 64.5295 71.7332 64.5295 68C64.5295 64.2668 63.0574 60.6865 60.4371 58.0468C57.8167 55.407 54.2628 53.924 50.5571 53.924Z" fill="#1E2B5A"/>
<path d="M204.55 63.5664C206.19 63.5664 207.52 62.2268 207.52 60.5744C207.52 58.922 206.19 57.5824 204.55 57.5824C202.909 57.5824 201.58 58.922 201.58 60.5744C201.58 62.2268 202.909 63.5664 204.55 63.5664Z" fill="#1E2B5A"/>
</svg>
