<svg width="100" height="100" viewBox="0 0 100 100" fill="none" xmlns="http://www.w3.org/2000/svg">
<g clip-path="url(#clip0)">
<path d="M77.1486 29.237L54.7605 6.84892C46.6398 -1.27181 37.6322 -1.72059 30.2995 5.61211L5.46451 30.4471C-1.98839 37.9 -1.44345 46.8114 6.67728 54.9322L29.0654 77.3203C37.317 85.5719 46.0949 85.9833 53.5478 78.5304L78.3828 53.6954C85.7155 46.3627 85.4003 37.4886 77.1486 29.237Z" fill="url(#paint0_linear)"/>
<g filter="url(#filter0_b)">
<mask id="path-2-inside-1" fill="white">
<path d="M64.3664 100C63.842 100 63.3175 99.8777 62.8442 99.6289L47.5925 91.6133C43.2647 89.3364 39.8792 86.7812 37.2356 83.8043C31.4496 77.294 28.2304 68.9368 28.1792 60.2676L28.0002 31.7343C27.9788 28.4412 30.0724 25.4854 33.202 24.3723L61.2069 14.4592C62.8698 13.8562 64.7246 13.8478 66.4173 14.4297L94.5288 24.0054C97.6755 25.0722 99.8031 28.0069 99.8202 31.2958L99.9993 59.8502C100.055 68.5067 96.9464 76.8976 91.2499 83.4796C88.6362 86.4987 85.2805 89.0918 80.9954 91.4109L65.8801 99.6079C65.411 99.8651 64.8909 99.9958 64.3664 100Z"/>
</mask>
<path d="M64.3664 100C63.842 100 63.3175 99.8777 62.8442 99.6289L47.5925 91.6133C43.2647 89.3364 39.8792 86.7812 37.2356 83.8043C31.4496 77.294 28.2304 68.9368 28.1792 60.2676L28.0002 31.7343C27.9788 28.4412 30.0724 25.4854 33.202 24.3723L61.2069 14.4592C62.8698 13.8562 64.7246 13.8478 66.4173 14.4297L94.5288 24.0054C97.6755 25.0722 99.8031 28.0069 99.8202 31.2958L99.9993 59.8502C100.055 68.5067 96.9464 76.8976 91.2499 83.4796C88.6362 86.4987 85.2805 89.0918 80.9954 91.4109L65.8801 99.6079C65.411 99.8651 64.8909 99.9958 64.3664 100Z" fill="#818EBE" fill-opacity="0.35"/>
<path d="M64.3664 101C64.9187 101 65.3664 100.552 65.3664 100C65.3664 99.4477 64.9187 99 64.3664 99V101ZM62.8442 99.6289L63.3095 98.7438L63.3094 98.7438L62.8442 99.6289ZM47.5925 91.6133L47.1269 92.4983L47.1273 92.4985L47.5925 91.6133ZM37.2356 83.8043L37.9834 83.1403L37.9831 83.14L37.2356 83.8043ZM28.1792 60.2676L29.1792 60.2617L29.1792 60.2613L28.1792 60.2676ZM28.0002 31.7343L29.0001 31.7281L29.0001 31.7279L28.0002 31.7343ZM33.202 24.3723L32.8684 23.4296L32.8669 23.4301L33.202 24.3723ZM61.2069 14.4592L61.5406 15.4019L61.5478 15.3993L61.2069 14.4592ZM66.4173 14.4297L66.0922 15.3754L66.0949 15.3763L66.4173 14.4297ZM94.5288 24.0054L94.2063 24.952L94.2077 24.9525L94.5288 24.0054ZM99.8202 31.2958L98.8202 31.301L98.8202 31.3021L99.8202 31.2958ZM99.9993 59.8502L98.9993 59.8564V59.8566L99.9993 59.8502ZM91.2499 83.4796L92.0059 84.1342L92.006 84.134L91.2499 83.4796ZM80.9954 91.4109L80.5194 90.5315L80.5187 90.5319L80.9954 91.4109ZM65.8801 99.6079L65.4034 98.7288L65.3992 98.7311L65.8801 99.6079ZM64.3584 99C63.8061 99.0045 63.362 99.4558 63.3664 100.008C63.3709 100.56 63.8222 101.004 64.3744 101L64.3584 99ZM64.3664 99C63.9965 99 63.6328 98.9137 63.3095 98.7438L62.3789 100.514C63.0023 100.842 63.6874 101 64.3664 101V99ZM63.3094 98.7438L48.0577 90.7281L47.1273 92.4985L62.379 100.514L63.3094 98.7438ZM48.0581 90.7283C43.8138 88.4953 40.5313 86.0095 37.9834 83.1403L36.4879 84.4683C39.2271 87.5528 42.7156 90.1774 47.1269 92.4983L48.0581 90.7283ZM37.9831 83.14C32.3573 76.8099 29.2289 68.6864 29.1792 60.2617L27.1793 60.2735C27.2319 69.1872 30.5419 77.778 36.4882 84.4686L37.9831 83.14ZM29.1792 60.2613L29.0001 31.7281L27.0002 31.7406L27.1793 60.2739L29.1792 60.2613ZM29.0001 31.7279C28.9816 28.867 30.8019 26.2873 33.5372 25.3144L32.8669 23.4301C29.3428 24.6835 26.9761 28.0155 27.0002 31.7408L29.0001 31.7279ZM33.5357 25.3149L61.5406 15.4019L60.8732 13.5165L32.8684 23.4296L33.5357 25.3149ZM61.5478 15.3993C62.9919 14.8757 64.6116 14.8664 66.0922 15.3754L66.7424 13.484C64.8376 12.8292 62.7477 12.8368 60.866 13.5191L61.5478 15.3993ZM66.0949 15.3763L94.2063 24.952L94.8512 23.0588L66.7398 13.4831L66.0949 15.3763ZM94.2077 24.9525C96.9552 25.8839 98.8054 28.4438 98.8202 31.301L100.82 31.2906C100.801 27.57 98.3958 24.2605 94.8498 23.0584L94.2077 24.9525ZM98.8202 31.3021L98.9993 59.8564L100.999 59.8439L100.82 31.2895L98.8202 31.3021ZM98.9993 59.8566C99.0532 68.2689 96.0326 76.4254 90.4937 82.8252L92.006 84.134C97.8602 77.3699 101.056 68.7445 100.999 59.8438L98.9993 59.8566ZM90.4939 82.8251C87.9746 85.735 84.7214 88.2574 80.5194 90.5315L81.4713 92.2904C85.8396 89.9263 89.2977 87.2624 92.0059 84.1342L90.4939 82.8251ZM80.5187 90.5319L65.4034 98.7288L66.3568 100.487L81.4721 92.29L80.5187 90.5319ZM65.3992 98.7311C65.079 98.9067 64.7219 98.9971 64.3584 99L64.3744 101C65.0598 100.994 65.7431 100.824 66.3609 100.485L65.3992 98.7311Z" fill="url(#paint1_linear)" mask="url(#path-2-inside-1)"/>
</g>
<g filter="url(#filter1_bd)">
<path d="M61.3178 67.1976C60.4992 67.2018 59.6805 66.9024 59.0495 66.2868L50.9311 58.3597C49.6776 57.1285 49.6648 55.1299 50.9056 53.8902C52.1463 52.6463 54.1717 52.6337 55.4295 53.8607L61.2709 59.5614L75.5335 45.2843C76.7785 44.0404 78.8038 44.0277 80.0574 45.2548C81.3152 46.486 81.328 48.4888 80.0872 49.7243L63.5734 66.2573C62.9509 66.8813 62.1365 67.1934 61.3178 67.1976Z" fill="url(#paint2_linear)"/>
<path d="M50.9764 53.9608L50.9762 53.961C49.7751 55.1611 49.7871 57.0958 51.0011 58.2883C51.0011 58.2883 51.0012 58.2884 51.0012 58.2884L59.1193 66.2152C59.1193 66.2152 59.1193 66.2153 59.1193 66.2153C59.7305 66.8115 60.5234 67.1017 61.3173 67.0976C62.1108 67.0935 62.8996 66.7912 63.5026 66.1867L63.5027 66.1866L80.0165 49.6536L80.0167 49.6534C81.2177 48.4576 81.2058 46.5188 79.9874 45.3262C78.7732 44.1377 76.8107 44.1497 75.6042 45.3549L50.9764 53.9608ZM50.9764 53.9608C52.1784 52.7558 54.141 52.7435 55.3596 53.9323C55.3596 53.9323 55.3596 53.9323 55.3597 53.9323L61.2011 59.633L61.2718 59.702L61.3417 59.6321L75.6041 45.355L50.9764 53.9608Z" stroke="url(#paint3_linear)" stroke-opacity="0.5" stroke-width="0.2"/>
</g>
</g>
<defs>
<filter id="filter0_b" x="4" y="-10" width="120" height="134" filterUnits="userSpaceOnUse" color-interpolation-filters="sRGB">
<feFlood flood-opacity="0" result="BackgroundImageFix"/>
<feGaussianBlur in="BackgroundImage" stdDeviation="12"/>
<feComposite in2="SourceAlpha" operator="in" result="effect1_backgroundBlur"/>
<feBlend mode="normal" in="SourceGraphic" in2="effect1_backgroundBlur" result="shape"/>
</filter>
<filter id="filter1_bd" x="34.9829" y="29.3429" width="61.0265" height="52.8548" filterUnits="userSpaceOnUse" color-interpolation-filters="sRGB">
<feFlood flood-opacity="0" result="BackgroundImageFix"/>
<feGaussianBlur in="BackgroundImage" stdDeviation="7.5"/>
<feComposite in2="SourceAlpha" operator="in" result="effect1_backgroundBlur"/>
<feColorMatrix in="SourceAlpha" type="matrix" values="0 0 0 0 0 0 0 0 0 0 0 0 0 0 0 0 0 0 127 0"/>
<feOffset dx="5" dy="5"/>
<feGaussianBlur stdDeviation="5"/>
<feColorMatrix type="matrix" values="0 0 0 0 0.361111 0 0 0 0 0.434127 0 0 0 0 0.680556 0 0 0 0.5 0"/>
<feBlend mode="normal" in2="effect1_backgroundBlur" result="effect2_dropShadow"/>
<feBlend mode="normal" in="SourceGraphic" in2="effect2_dropShadow" result="shape"/>
</filter>
<linearGradient id="paint0_linear" x1="86.5557" y1="38.6441" x2="1.31792" y2="23.0308" gradientUnits="userSpaceOnUse">
<stop stop-color="#8991AB"/>
<stop offset="1" stop-color="#202E60"/>
</linearGradient>
<linearGradient id="paint1_linear" x1="39.4612" y1="24.0191" x2="95.5433" y2="82.1708" gradientUnits="userSpaceOnUse">
<stop stop-color="white" stop-opacity="0.25"/>
<stop offset="1" stop-color="white" stop-opacity="0"/>
</linearGradient>
<linearGradient id="paint2_linear" x1="78.8096" y1="48.47" x2="44.28" y2="49.9983" gradientUnits="userSpaceOnUse">
<stop stop-color="white"/>
<stop offset="1" stop-color="white" stop-opacity="0.2"/>
</linearGradient>
<linearGradient id="paint3_linear" x1="53.3251" y1="52.0095" x2="79.6702" y2="52.207" gradientUnits="userSpaceOnUse">
<stop stop-color="white"/>
<stop offset="1" stop-color="white" stop-opacity="0"/>
</linearGradient>
<clipPath id="clip0">
<rect width="100" height="100" fill="white"/>
</clipPath>
</defs>
</svg>
