<svg width="100" height="100" viewBox="0 0 100 100" fill="none" xmlns="http://www.w3.org/2000/svg">
<g clip-path="url(#clip0)">
<path d="M77.1486 29.237L54.7605 6.84892C46.6398 -1.27181 37.6322 -1.72059 30.2995 5.61211L5.46451 30.4471C-1.98839 37.9 -1.44345 46.8114 6.67728 54.9322L29.0654 77.3203C37.317 85.5719 46.0949 85.9833 53.5478 78.5304L78.3828 53.6954C85.7155 46.3627 85.4003 37.4886 77.1486 29.237Z" fill="url(#paint0_linear)"/>
<g filter="url(#filter0_b)">
<mask id="path-2-inside-1" fill="white">
<path d="M98.9063 69.48C98.1194 68.28 97.0012 67.08 95.5516 66.32C94.392 65.76 93.6465 64.84 92.9838 63.76C90.8716 60.32 92.1141 55.8 95.6344 53.76C99.7761 51.48 101.101 46.4 98.6992 42.44L95.9244 37.72C93.5636 33.76 88.3866 32.36 84.2864 34.68C80.6418 36.6 75.9618 35.32 73.8495 31.92C73.1869 30.8 72.8141 29.6 72.897 28.4C73.0212 26.84 72.5242 25.36 71.7787 24.16C70.2463 21.68 67.4714 20 64.4067 20H58.567C55.5436 20.08 52.7687 21.68 51.2363 24.16C50.4494 25.36 49.9938 26.84 50.0767 28.4C50.1595 29.6 49.7867 30.8 49.1241 31.92C47.0119 35.32 42.3318 36.6 38.7286 34.68C34.587 32.36 29.4514 33.76 27.0493 37.72L24.2744 42.44C21.9137 46.4 23.239 51.48 27.3392 53.76C30.8596 55.8 32.102 60.32 30.0312 63.76C29.3272 64.84 28.5817 65.76 27.422 66.32C26.0139 67.08 24.7714 68.28 24.1087 69.48C22.5763 71.96 22.6592 75.08 24.1916 77.68L27.0493 82.48C28.5817 85.04 31.4394 86.64 34.4213 86.64C35.8295 86.64 37.4861 86.24 38.8115 85.44C39.8469 84.76 41.0893 84.52 42.4561 84.52C46.5563 84.52 49.9938 87.84 50.0767 91.8C50.0767 96.4 53.8869 100 58.6912 100H64.3238C69.0867 100 72.897 96.4 72.897 91.8C73.0212 87.84 76.4588 84.52 80.559 84.52C81.8843 84.52 83.1268 84.76 84.2036 85.44C85.5289 86.24 87.1441 86.64 88.5937 86.64C91.5342 86.64 94.392 85.04 95.9244 82.48L98.8235 77.68C100.314 75 100.439 71.96 98.9063 69.48Z"/>
</mask>
<path d="M98.9063 69.48C98.1194 68.28 97.0012 67.08 95.5516 66.32C94.392 65.76 93.6465 64.84 92.9838 63.76C90.8716 60.32 92.1141 55.8 95.6344 53.76C99.7761 51.48 101.101 46.4 98.6992 42.44L95.9244 37.72C93.5636 33.76 88.3866 32.36 84.2864 34.68C80.6418 36.6 75.9618 35.32 73.8495 31.92C73.1869 30.8 72.8141 29.6 72.897 28.4C73.0212 26.84 72.5242 25.36 71.7787 24.16C70.2463 21.68 67.4714 20 64.4067 20H58.567C55.5436 20.08 52.7687 21.68 51.2363 24.16C50.4494 25.36 49.9938 26.84 50.0767 28.4C50.1595 29.6 49.7867 30.8 49.1241 31.92C47.0119 35.32 42.3318 36.6 38.7286 34.68C34.587 32.36 29.4514 33.76 27.0493 37.72L24.2744 42.44C21.9137 46.4 23.239 51.48 27.3392 53.76C30.8596 55.8 32.102 60.32 30.0312 63.76C29.3272 64.84 28.5817 65.76 27.422 66.32C26.0139 67.08 24.7714 68.28 24.1087 69.48C22.5763 71.96 22.6592 75.08 24.1916 77.68L27.0493 82.48C28.5817 85.04 31.4394 86.64 34.4213 86.64C35.8295 86.64 37.4861 86.24 38.8115 85.44C39.8469 84.76 41.0893 84.52 42.4561 84.52C46.5563 84.52 49.9938 87.84 50.0767 91.8C50.0767 96.4 53.8869 100 58.6912 100H64.3238C69.0867 100 72.897 96.4 72.897 91.8C73.0212 87.84 76.4588 84.52 80.559 84.52C81.8843 84.52 83.1268 84.76 84.2036 85.44C85.5289 86.24 87.1441 86.64 88.5937 86.64C91.5342 86.64 94.392 85.04 95.9244 82.48L98.8235 77.68C100.314 75 100.439 71.96 98.9063 69.48Z" fill="#818EBE" fill-opacity="0.35"/>
<path d="M98.0701 70.0284C98.3729 70.4902 98.9928 70.6191 99.4547 70.3162C99.9165 70.0134 100.045 69.3935 99.7426 68.9316L98.0701 70.0284ZM95.5516 66.32L96.016 65.4343C96.0062 65.4292 95.9964 65.4243 95.9865 65.4195L95.5516 66.32ZM92.9838 63.76L93.8362 63.237L93.836 63.2367L92.9838 63.76ZM95.6344 53.76L95.1522 52.884C95.1458 52.8875 95.1394 52.8911 95.1331 52.8948L95.6344 53.76ZM98.6992 42.44L97.8371 42.9469L97.8442 42.9586L98.6992 42.44ZM95.9244 37.72L96.7864 37.2132L96.7833 37.2079L95.9244 37.72ZM84.2864 34.68L84.7525 35.5647C84.7614 35.5601 84.7701 35.5553 84.7789 35.5503L84.2864 34.68ZM73.8495 31.92L72.9889 32.4292C72.9926 32.4354 72.9963 32.4416 73.0001 32.4477L73.8495 31.92ZM72.897 28.4L71.9001 28.3206L71.8993 28.3311L72.897 28.4ZM71.7787 24.16L70.928 24.6857L70.9293 24.6877L71.7787 24.16ZM58.567 20V19C58.5582 19 58.5493 19.0001 58.5405 19.0003L58.567 20ZM51.2363 24.16L52.0725 24.7084C52.0775 24.7009 52.0823 24.6933 52.087 24.6856L51.2363 24.16ZM50.0767 28.4L49.0781 28.453C49.0783 28.4583 49.0787 28.4636 49.079 28.4689L50.0767 28.4ZM49.1241 31.92L49.9735 32.4477C49.9773 32.4416 49.9811 32.4354 49.9847 32.4292L49.1241 31.92ZM38.7286 34.68L38.2399 35.5524C38.246 35.5559 38.2522 35.5592 38.2584 35.5625L38.7286 34.68ZM27.0493 37.72L26.1942 37.2013L26.1872 37.2132L27.0493 37.72ZM24.2744 42.44L25.1334 42.9521L25.1364 42.9468L24.2744 42.44ZM27.3392 53.76L27.8406 52.8948C27.8355 52.8918 27.8303 52.8889 27.8252 52.886L27.3392 53.76ZM30.0312 63.76L30.8689 64.3061C30.8755 64.2961 30.8818 64.286 30.888 64.2757L30.0312 63.76ZM27.422 66.32L26.9872 65.4195C26.9736 65.426 26.9603 65.4329 26.9471 65.44L27.422 66.32ZM24.1087 69.48L24.9594 70.0056C24.968 69.9918 24.9762 69.9777 24.9841 69.9634L24.1087 69.48ZM24.1916 77.68L23.33 78.1878L23.3323 78.1916L24.1916 77.68ZM27.0493 82.48L26.19 82.9916L26.1912 82.9936L27.0493 82.48ZM38.8115 85.44L39.3282 86.2961C39.3391 86.2896 39.3498 86.2828 39.3604 86.2759L38.8115 85.44ZM50.0767 91.8H51.0767C51.0767 91.793 51.0766 91.7861 51.0764 91.7791L50.0767 91.8ZM72.897 91.8L71.8975 91.7686C71.8971 91.7791 71.897 91.7896 71.897 91.8H72.897ZM84.2036 85.44L83.6696 86.2855C83.6753 86.2891 83.681 86.2926 83.6868 86.2961L84.2036 85.44ZM95.9244 82.48L95.0684 81.963L95.0663 81.9664L95.9244 82.48ZM98.8235 77.68L99.6795 78.197C99.6856 78.1868 99.6916 78.1765 99.6973 78.1662L98.8235 77.68ZM99.757 68.9543C99.4667 68.4845 98.8505 68.339 98.3807 68.6293C97.9108 68.9196 97.7653 69.5358 98.0556 70.0056L99.757 68.9543ZM99.7426 68.9316C98.8914 67.6337 97.657 66.2947 96.016 65.4343L95.0873 67.2057C96.3454 67.8653 97.3474 68.9263 98.0701 70.0284L99.7426 68.9316ZM95.9865 65.4195C95.0808 64.9822 94.4599 64.2536 93.8362 63.237L92.1315 64.283C92.8331 65.4264 93.7031 66.5378 95.1168 67.2205L95.9865 65.4195ZM93.836 63.2367C92.0323 60.2993 93.0778 56.3973 96.1358 54.6252L95.1331 52.8948C91.1503 55.2027 89.7108 60.3407 92.1316 64.2833L93.836 63.2367ZM96.1167 54.636C100.756 52.0821 102.252 46.3683 99.5542 41.9214L97.8442 42.9586C99.951 46.4317 98.7962 50.8779 95.1522 52.884L96.1167 54.636ZM99.5613 41.9332L96.7864 37.2132L95.0623 38.2268L97.8372 42.9468L99.5613 41.9332ZM96.7833 37.2079C94.1434 32.7795 88.3655 31.2229 83.794 33.8097L84.7789 35.5503C88.4077 33.4971 92.9839 34.7404 95.0654 38.2321L96.7833 37.2079ZM83.8203 33.7953C80.6337 35.474 76.5306 34.3406 74.699 31.3923L73.0001 32.4477C75.393 36.2994 80.6499 37.726 84.7525 35.5647L83.8203 33.7953ZM74.7102 31.4108C74.1196 30.4126 73.8294 29.4133 73.8946 28.4689L71.8993 28.3311C71.7989 29.7867 72.2542 31.1874 72.9889 32.4292L74.7102 31.4108ZM73.8938 28.4794C74.0389 26.6576 73.4574 24.9671 72.6282 23.6323L70.9293 24.6877C71.591 25.7529 72.0035 27.0224 71.9001 28.3206L73.8938 28.4794ZM72.6294 23.6343C70.9259 20.8773 67.8385 19 64.4067 19V21C67.1044 21 69.5668 22.4827 70.928 24.6856L72.6294 23.6343ZM64.4067 19H58.567V21H64.4067V19ZM58.5405 19.0003C55.1859 19.0891 52.0983 20.8626 50.3856 23.6343L52.087 24.6856C53.4391 22.4974 55.9013 21.0709 58.5934 20.9997L58.5405 19.0003ZM50.4001 23.6116C49.5054 24.9759 48.9831 26.6645 49.0781 28.453L51.0753 28.347C51.0046 27.0155 51.3934 25.7441 52.0725 24.7084L50.4001 23.6116ZM49.079 28.4689C49.1442 29.4133 48.8541 30.4126 48.2634 31.4108L49.9847 32.4292C50.7194 31.1874 51.1748 29.7867 51.0743 28.3311L49.079 28.4689ZM48.2747 31.3923C46.4411 34.3437 42.3387 35.4706 39.1989 33.7975L38.2584 35.5625C42.3249 37.7294 47.5826 36.2963 49.9735 32.4477L48.2747 31.3923ZM39.2173 33.8076C34.6045 31.2236 28.8752 32.7818 26.1943 37.2014L27.9043 38.2386C30.0276 34.7382 34.5695 33.4964 38.2399 35.5524L39.2173 33.8076ZM26.1872 37.2132L23.4123 41.9332L25.1364 42.9468L27.9113 38.2268L26.1872 37.2132ZM23.4154 41.9279C20.7672 46.3703 22.2578 52.0786 26.8532 54.634L27.8252 52.886C24.2201 50.8814 23.0602 46.4297 25.1333 42.9521L23.4154 41.9279ZM26.8378 54.6252C29.8958 56.3973 30.9447 60.3037 29.1745 63.2443L30.888 64.2757C33.2594 60.3363 31.8233 55.2027 27.8406 52.8948L26.8378 54.6252ZM29.1935 63.2139C28.5177 64.2506 27.8955 64.9809 26.9872 65.4195L27.8569 67.2205C29.2679 66.5391 30.1367 65.4294 30.8689 64.3061L29.1935 63.2139ZM26.9471 65.44C25.3917 66.2794 23.9999 67.6085 23.2333 68.9966L24.9841 69.9634C25.5429 68.9515 26.636 67.8806 27.897 67.2L26.9471 65.44ZM23.258 68.9543C21.5104 71.7827 21.6294 75.3023 23.3301 78.1878L25.0531 77.1722C23.6889 74.8577 23.6422 72.1373 24.9594 70.0056L23.258 68.9543ZM23.3323 78.1916L26.19 82.9916L27.9085 81.9684L25.0508 77.1684L23.3323 78.1916ZM26.1912 82.9936C27.9065 85.8591 31.0922 87.64 34.4213 87.64V85.64C31.7866 85.64 29.2568 84.2209 27.9073 81.9664L26.1912 82.9936ZM34.4213 87.64C35.9934 87.64 37.8321 87.1992 39.3282 86.2961L38.2947 84.5839C37.1402 85.2808 35.6656 85.64 34.4213 85.64V87.64ZM39.3604 86.2759C40.1723 85.7426 41.1968 85.52 42.4561 85.52V83.52C40.9819 83.52 39.5214 83.7774 38.2625 84.6041L39.3604 86.2759ZM42.4561 85.52C46.0322 85.52 49.0058 88.4248 49.0769 91.8209L51.0764 91.7791C50.9818 87.2552 47.0804 83.52 42.4561 83.52V85.52ZM49.0767 91.8C49.0767 97.0003 53.3839 101 58.6912 101V99C54.39 99 51.0767 95.7997 51.0767 91.8H49.0767ZM58.6912 101H64.3238V99H58.6912V101ZM64.3238 101C69.5929 101 73.897 96.9972 73.897 91.8H71.897C71.897 95.8028 68.5804 99 64.3238 99V101ZM73.8965 91.8314C74.0034 88.4247 76.9852 85.52 80.559 85.52V83.52C75.9323 83.52 72.0391 87.2553 71.8975 91.7686L73.8965 91.8314ZM80.559 85.52C81.7683 85.52 82.8048 85.7394 83.6696 86.2855L84.7375 84.5945C83.4487 83.7806 82.0002 83.52 80.559 83.52V85.52ZM83.6868 86.2961C85.181 87.1981 86.9777 87.64 88.5937 87.64V85.64C87.3105 85.64 85.8768 85.2819 84.7204 84.5839L83.6868 86.2961ZM88.5937 87.64C91.8841 87.64 95.0685 85.8568 96.7824 82.9936L95.0663 81.9664C93.7154 84.2232 91.1844 85.64 88.5937 85.64V87.64ZM96.7803 82.997L99.6795 78.197L97.9675 77.163L95.0684 81.963L96.7803 82.997ZM99.6973 78.1662C101.332 75.2274 101.512 71.7949 99.757 68.9543L98.0556 70.0056C99.3652 72.1251 99.2966 74.7726 97.9496 77.1938L99.6973 78.1662Z" fill="url(#paint1_linear)" mask="url(#path-2-inside-1)"/>
</g>
<g filter="url(#filter1_bd)">
<path d="M61.5591 71.0082C55.0567 71.0082 49.7969 66.0082 49.7969 59.7282C49.7969 53.4482 55.0567 48.4082 61.5591 48.4082C68.0614 48.4082 73.197 53.4482 73.197 59.7282C73.197 66.0082 68.0614 71.0082 61.5591 71.0082Z" fill="url(#paint2_linear)"/>
<path d="M61.5591 70.9082C55.1077 70.9082 49.8969 65.9488 49.8969 59.7282C49.8969 53.5071 55.1082 48.5082 61.5591 48.5082C68.0085 48.5082 73.097 53.5057 73.097 59.7282C73.097 65.9501 68.009 70.9082 61.5591 70.9082Z" stroke="url(#paint3_linear)" stroke-opacity="0.5" stroke-width="0.2"/>
</g>
</g>
<defs>
<filter id="filter0_b" x="-1" y="-4" width="125" height="128" filterUnits="userSpaceOnUse" color-interpolation-filters="sRGB">
<feFlood flood-opacity="0" result="BackgroundImageFix"/>
<feGaussianBlur in="BackgroundImage" stdDeviation="12"/>
<feComposite in2="SourceAlpha" operator="in" result="effect1_backgroundBlur"/>
<feBlend mode="normal" in="SourceGraphic" in2="effect1_backgroundBlur" result="shape"/>
</filter>
<filter id="filter1_bd" x="34.7969" y="33.4082" width="53.4001" height="52.6" filterUnits="userSpaceOnUse" color-interpolation-filters="sRGB">
<feFlood flood-opacity="0" result="BackgroundImageFix"/>
<feGaussianBlur in="BackgroundImage" stdDeviation="7.5"/>
<feComposite in2="SourceAlpha" operator="in" result="effect1_backgroundBlur"/>
<feColorMatrix in="SourceAlpha" type="matrix" values="0 0 0 0 0 0 0 0 0 0 0 0 0 0 0 0 0 0 127 0"/>
<feOffset dx="5" dy="5"/>
<feGaussianBlur stdDeviation="5"/>
<feColorMatrix type="matrix" values="0 0 0 0 0.361111 0 0 0 0 0.434127 0 0 0 0 0.680556 0 0 0 0.5 0"/>
<feBlend mode="normal" in2="effect1_backgroundBlur" result="effect2_dropShadow"/>
<feBlend mode="normal" in="SourceGraphic" in2="effect2_dropShadow" result="shape"/>
</filter>
<linearGradient id="paint0_linear" x1="86.5557" y1="38.6441" x2="1.31792" y2="23.0308" gradientUnits="userSpaceOnUse">
<stop stop-color="#8991AB"/>
<stop offset="1" stop-color="#202E60"/>
</linearGradient>
<linearGradient id="paint1_linear" x1="35.2571" y1="29.3201" x2="86.6652" y2="90.6026" gradientUnits="userSpaceOnUse">
<stop stop-color="white" stop-opacity="0.25"/>
<stop offset="1" stop-color="white" stop-opacity="0"/>
</linearGradient>
<linearGradient id="paint2_linear" x1="71.538" y1="52.4893" x2="45.4744" y2="53.3692" gradientUnits="userSpaceOnUse">
<stop stop-color="white"/>
<stop offset="1" stop-color="white" stop-opacity="0.2"/>
</linearGradient>
<linearGradient id="paint3_linear" x1="52.3176" y1="55.9894" x2="72.1875" y2="56.103" gradientUnits="userSpaceOnUse">
<stop stop-color="white"/>
<stop offset="1" stop-color="white" stop-opacity="0"/>
</linearGradient>
<clipPath id="clip0">
<rect width="100" height="100" fill="white"/>
</clipPath>
</defs>
</svg>
